<?xml version="1.0" encoding="iso-8859-1"?>
<!-- Uploaded to: SVG Repo, www.svgrepo.com, Generator: SVG Repo Mixer Tools -->
<svg fill="#000000" height="800px" width="800px" version="1.1" id="Layer_1" xmlns="http://www.w3.org/2000/svg" xmlns:xlink="http://www.w3.org/1999/xlink" 
	 viewBox="0 0 512.001 512.001" xml:space="preserve">
<g>
	<g>
		<circle cx="110.462" cy="382.721" r="10.073"/>
	</g>
</g>
<g>
	<g>
		<circle cx="177.593" cy="382.721" r="10.073"/>
	</g>
</g>
<g>
	<g>
		<circle cx="110.462" cy="450.59" r="10.072"/>
	</g>
</g>
<g>
	<g>
		<circle cx="177.593" cy="450.59" r="10.072"/>
	</g>
</g>
<g>
	<g>
		<path d="M447.506,203.906h-71.217l-52.988-65.39h89.71c26.124,0,45.839-23.671,41.171-49.334l-7.71-42.41
			C441.543,19.672,417.971,0,390.425,0H187.741c-27.548,0-51.119,19.672-56.046,46.774l-7.711,42.412
			c-4.673,25.703,15.088,49.332,41.172,49.332h91.892L139.054,318.12c-0.409,0.623-0.755,1.268-1.071,1.921H64.494
			c-9.261,0-16.769,7.508-16.769,16.769v158.423c0,9.261,7.508,16.769,16.769,16.769h158.423c9.261,0,16.769-7.508,16.769-16.769
			V336.808c0-9.261-7.508-16.769-16.769-16.769h-44.996l111.625-169.908l43.577,53.775h-44.039c-9.261,0-16.769,7.508-16.769,16.769
			v158.423c0,9.261,7.508,16.769,16.769,16.769h158.424c9.261,0,16.769-7.508,16.769-16.769V220.675
			C464.275,211.414,456.767,203.906,447.506,203.906z M206.148,353.577v124.885H81.263V353.577H206.148z M165.153,104.98
			c-5.186-0.001-9.099-4.702-8.174-9.796l7.711-42.41c2.027-11.147,11.721-19.236,23.05-19.236h68.682l-28.65,28.65
			c-6.549,6.548-6.549,17.166,0,23.714c6.549,6.549,17.166,6.549,23.715,0l52.364-52.365h24.396l-8.618,8.618
			c-6.549,6.549-6.549,17.166,0,23.715c6.547,6.549,17.165,6.55,23.715,0l28.138-28.139c1.264-1.264,2.279-2.684,3.055-4.193h15.887
			c11.329,0,21.023,8.089,23.049,19.236l7.71,42.411c0.927,5.091-2.986,9.795-8.175,9.795H165.153z M430.737,362.33H305.85V237.444
			h124.887V362.33z"/>
	</g>
</g>
<g>
	<g>
		<circle cx="368.4" cy="300.107" r="11.306"/>
	</g>
</g>
<g>
	<g>
		<circle cx="406.298" cy="262.421" r="11.306"/>
	</g>
</g>
<g>
	<g>
		<circle cx="330.928" cy="338.63" r="11.306"/>
	</g>
</g>
</svg>