<?xml version="1.0" ?>
<!DOCTYPE svg  PUBLIC '-//W3C//DTD SVG 1.1//EN'  'http://www.w3.org/Graphics/SVG/1.1/DTD/svg11.dtd'>
<!-- Uploaded to: SVG Repo, www.svgrepo.com, Generator: SVG Repo Mixer Tools -->
<svg fill="#000000" width="800px" height="800px" viewBox="0 0 32 32" style="fill-rule:evenodd;clip-rule:evenodd;stroke-linejoin:round;stroke-miterlimit:2;" version="1.1" xml:space="preserve" xmlns="http://www.w3.org/2000/svg" xmlns:serif="http://www.serif.com/" xmlns:xlink="http://www.w3.org/1999/xlink">
<g id="Layer1">
<path d="M16,19.053c-1.385,-0 -2.5,1.113 -2.5,2.473c-0,1.361 1.115,2.474 2.5,2.474c1.385,0 2.5,-1.113 2.5,-2.474c0,-1.36 -1.115,-2.473 -2.5,-2.473Zm-4,1.982c0,-0.806 0.291,-1.548 0.777,-2.147c0.735,-0.905 1.907,-1.482 3.223,-1.482c2.187,0 4,1.604 4,3.629c0,0.552 0.448,1 1,1c0.552,0 1,-0.448 1,-1c0,-3.085 -2.668,-5.629 -6,-5.629c-1.953,0 -3.685,0.878 -4.776,2.221c-0.77,0.95 -1.224,2.13 -1.224,3.408c0,0.552 0.448,1 1,1c0.552,0 1,-0.448 1,-1Zm-4,0c0,-1.797 0.708,-3.441 1.874,-4.712c1.473,-1.606 3.673,-2.62 6.126,-2.62c4.395,0 8,3.263 8,7.332c0,0.552 0.448,1 1,1c0.552,0 1,-0.448 1,-1c0,-5.128 -4.46,-9.332 -10,-9.332c-3.045,0 -5.771,1.273 -7.6,3.268c-1.499,1.635 -2.4,3.753 -2.4,6.064c0,0.552 0.448,1 1,1c0.552,0 1,-0.448 1,-1Zm-4,0c0,-2.83 1.162,-5.409 3.062,-7.359c2.203,-2.26 5.394,-3.676 8.938,-3.676c6.603,0 12,4.923 12,11.035c0,0.552 0.448,1 1,1c0.552,0 1,-0.448 1,-1c0,-7.172 -6.253,-13.035 -14,-13.035c-4.114,0 -7.813,1.656 -10.37,4.28c-2.259,2.318 -3.63,5.39 -3.63,8.755c0,0.552 0.448,1 1,1c0.552,0 1,-0.448 1,-1Z"/>
</g>
</svg>